<svg xmlns="http://www.w3.org/2000/svg" width="66.521" height="66.507" viewBox="0 0 66.521 66.507">
  <g id="_03" data-name="03" transform="translate(-3.46 -24.18)">
    <path id="Path_270" data-name="Path 270" d="M69.981,43.926a31.106,31.106,0,0,1-.938,3.889c-2.338,6.2-6.843,9.748-13.409,10.672a14.658,14.658,0,0,1-5.475-.332.752.752,0,0,0-.848.25,3.444,3.444,0,0,1-4.023,1.125c-.094-.034-.252-.062-.305-.011a15.474,15.474,0,0,0-1.506,1.516c-.167.208-.118.613-.118.929q-.008,11.917,0,23.832c0,3.081-1.8,4.889-4.869,4.889q-15.068,0-30.137,0c-3.072,0-4.889-1.812-4.889-4.876V29.638c0-3.245.78-4.377,3.768-5.458H39.58a2.375,2.375,0,0,0,.294.118,4.4,4.4,0,0,1,3.479,4.352c.007.509,0,1.019,0,1.638.264-.194.436-.314.6-.442a16.081,16.081,0,0,1,25.411,8.313c.28.991.415,2.025.616,3.039Q69.981,42.563,69.981,43.926ZM18.969,75.176c0-1.555.022-3.023-.008-4.491a3.053,3.053,0,0,1,.976-2.371q5.927-5.876,11.814-11.793c1.607-1.607,3.221-3.209,4.814-4.83a.811.811,0,0,0,.239-.643,3.451,3.451,0,0,1,1.1-3.926.908.908,0,0,0,.29-1.017,14.571,14.571,0,0,1,1.544-11.159,9.1,9.1,0,0,0,1.409-5.842c-.01-.107,0-.217,0-.325A2.23,2.23,0,0,0,38.733,26.4c-1.083-.008-2.167-.03-3.247.017a1.442,1.442,0,0,0-.872.4c-.8.792-1.557,1.627-2.319,2.455a4.61,4.61,0,0,1-3.566,1.566q-5.326-.021-10.653,0A4.558,4.558,0,0,1,14.562,29.3c-.794-.858-1.583-1.722-2.407-2.551a1.249,1.249,0,0,0-.769-.337c-1.017-.038-2.035-.017-3.053-.015-1.829,0-2.66.83-2.66,2.655V80.3c0,1.8.816,2.617,2.615,2.617q15.135,0,30.27,0a2.254,2.254,0,0,0,2.582-2.582q0-8.152,0-16.3c0-.205-.017-.411-.03-.71-1.551,1.125-2.842-.067-4.317-.363.255.744.485,1.409.71,2.077a2.29,2.29,0,0,1-.579,2.506c-.562.571-1.167,1.1-1.692,1.707a2.666,2.666,0,0,1-3.436.742c-.454-.205-.938-.346-1.552-.568.281.807.5,1.437.721,2.066a2.335,2.335,0,0,1-.6,2.615c-.766.764-1.557,1.507-2.291,2.3a3.069,3.069,0,0,1-2.427,1c-4.633-.02-9.268-.007-13.9-.011a3.375,3.375,0,0,1-.835-.077,1,1,0,0,1-.789-1.055A1.011,1.011,0,0,1,11,75.217a3.863,3.863,0,0,1,.711-.037q3.248,0,6.5,0C18.439,75.176,18.671,75.176,18.969,75.176Zm34.816-18.65c.01-.032.018-.063.028-.1.71-.063,1.427-.084,2.13-.2A13.776,13.776,0,0,0,67.5,40.066,13.105,13.105,0,0,0,57.277,29.1c-5.683-1.444-10.568.263-14.266,4.812a13.27,13.27,0,0,0-2.476,12.416,1.511,1.511,0,0,1-.451,1.745,9.826,9.826,0,0,0-.872.873A1.169,1.169,0,0,0,39.2,50.73q3.2,3.231,6.43,6.429a1.171,1.171,0,0,0,1.787,0,10.88,10.88,0,0,0,.918-.918,1.475,1.475,0,0,1,1.632-.436C51.232,56.1,52.513,56.292,53.785,56.526ZM21.22,75.157c1.6,0,3.129.01,4.66-.013a.935.935,0,0,0,.548-.277c.734-.7,1.465-1.415,2.156-2.16a.884.884,0,0,0,.162-.713c-.174-.645-.447-1.263-.647-1.9a2.2,2.2,0,0,1,2.8-2.8c.614.207,1.212.47,1.834.643a.894.894,0,0,0,.714-.135,18.872,18.872,0,0,0,1.668-1.635.882.882,0,0,0,.148-.71c-.18-.665-.451-1.306-.658-1.966a2.071,2.071,0,0,1,.558-2.2,2.122,2.122,0,0,1,2.219-.53,4.968,4.968,0,0,1,1.094.4,1.476,1.476,0,0,0,2.14-.454c.807-.97,1.751-1.829,2.59-2.69l-4.89-4.888a1.178,1.178,0,0,0-.153.12q-8.34,8.331-16.671,16.669a.9.9,0,0,0-.263.553C21.21,71.984,21.22,73.5,21.22,75.157Zm19.912,9.365c-1.347.832-2.774.6-4.165.6q-13.307.019-26.615,0c-1.559,0-3.159.269-4.679-.578v1.2c0,1.919.806,2.728,2.715,2.728H38.444c.217,0,.434.008.648-.011a2.206,2.206,0,0,0,2.035-2.014C41.164,85.847,41.132,85.244,41.132,84.521ZM15.073,26.437l-.135.141a20.369,20.369,0,0,0,1.729,1.617,2.261,2.261,0,0,0,1.261.4q5.482.046,10.962,0a2.251,2.251,0,0,0,1.26-.4,20.094,20.094,0,0,0,1.724-1.618l-.1-.136Z" transform="translate(0 0)" fill="#545252"/>
    <path id="Path_271" data-name="Path 271" d="M49.957,173.27c.848,1.147.939,1.694.391,2.188-.51.46-1.06.346-1.943-.429-.412.463-.82.934-1.242,1.391a1.122,1.122,0,0,1-1.656.2,1.1,1.1,0,0,1,.01-1.668c.477-.557.965-1.105,1.489-1.707l-3.117-3.75c-.18-.217-.366-.427-.54-.648a1.139,1.139,0,0,1,.044-1.717,1.107,1.107,0,0,1,1.645.287c.963,1.14,1.912,2.292,2.868,3.438.179.214.359.425.584.692l3.827-4.359c.285-.325.565-.655.858-.974a1.112,1.112,0,1,1,1.658,1.455c-1.531,1.765-3.074,3.519-4.611,5.28C50.137,173.044,50.06,173.145,49.957,173.27Z" transform="translate(-33.966 -121.633)" fill="#545252"/>
    <path id="Path_272" data-name="Path 272" d="M75.758,266.127c-1.031-.03-1.533-.809-1.249-1.544a2.356,2.356,0,0,1,.188-.339q3.2-5.338,6.4-10.672a1.873,1.873,0,0,1,.347-.464,1.039,1.039,0,0,1,1.371-.082,1.018,1.018,0,0,1,.4,1.257,2.538,2.538,0,0,1-.236.46c-2.122,3.539-4.237,7.084-6.384,10.608A3.622,3.622,0,0,1,75.758,266.127Z" transform="translate(-60.992 -196.479)" fill="#545252"/>
    <path id="Path_273" data-name="Path 273" d="M169,143.723a1.159,1.159,0,0,1,.981-1.244,1.093,1.093,0,0,1,1.215,1c.314,2.07.6,4.142.9,6.214.075.513.172,1.024.217,1.538a1.113,1.113,0,0,1-.945,1.205,1.053,1.053,0,0,1-1.212-.832C169.747,148.955,169.375,146.3,169,143.723Z" transform="translate(-142.261 -101.658)" fill="#545252"/>
    <path id="Path_274" data-name="Path 274" d="M95.539,98.541,92.8,97.863c-.585-.145-1.177-.27-1.753-.444a1.1,1.1,0,0,1,.539-2.133q2.234.521,4.449,1.122a1.073,1.073,0,0,1,.814,1.226A1.145,1.145,0,0,1,95.539,98.541Z" transform="translate(-74.566 -61.08)" fill="#545252"/>
    <path id="Path_275" data-name="Path 275" d="M351.826,100.745a5.693,5.693,0,0,1-.034-11.385,5.693,5.693,0,1,1,.034,11.385Zm-.037-2.224a3.443,3.443,0,0,0,3.5-3.49,3.482,3.482,0,1,0-6.964.034A3.429,3.429,0,0,0,351.789,98.521Z" transform="translate(-294.479 -56.015)" fill="#545252"/>
  </g>
</svg>
