<svg xmlns="http://www.w3.org/2000/svg" width="66.518" height="66.506" viewBox="0 0 66.518 66.506">
  <g id="_02-01" data-name="02-01" transform="translate(0 -8.176)">
    <path id="Path_268" data-name="Path 268" d="M0,35.587a13.572,13.572,0,0,1,1.463-1.675Q16.451,21.432,31.471,8.991C32.784,7.9,33.723,7.9,35.043,9q7.192,5.968,14.387,11.932c.111.092.229.176.445.341,0-1.354,0-2.6,0-3.841,0-1.774.844-2.608,2.637-2.609q2.338,0,4.674,0c1.824,0,2.673.841,2.674,2.647,0,3.83.008,7.661-.01,11.491A1.189,1.189,0,0,0,60.339,30c1.678,1.364,3.339,2.751,5,4.134,1.466,1.22,1.556,2.412.3,3.825l-2.109,2.381c-1.188,1.339-2.036,1.485-3.673.552v.781c0,10.041-.014,20.081.017,30.122a2.728,2.728,0,0,1-1.689,2.888H8.313A2.726,2.726,0,0,1,6.623,71.8c.032-10.035.018-20.072.018-30.107v-.781c-1.692.924-2.473.781-3.7-.6-.416-.469-.858-.919-1.245-1.41C1.11,38.153.563,37.383,0,36.627Zm57.645,36.85v-.856q0-15.908.014-31.815A1.572,1.572,0,0,0,57,38.411Q45.371,28.8,33.772,19.139c-.39-.325-.62-.348-1.023-.014Q21.05,28.863,9.322,38.567a1.147,1.147,0,0,0-.476.98q.021,16.1.011,32.2v.686Zm6.641-36.281L33.263,10.4,2.225,36.135l2.755,3.123c.14-.1.246-.178.344-.258Q18.74,27.877,32.157,16.752c.89-.738,1.275-.759,2.094-.08q11.141,9.241,22.28,18.485c1.646,1.366,3.295,2.73,4.979,4.125ZM52.09,17.07c0,1.98-.01,3.884.015,5.787a.915.915,0,0,0,.341.563c1.571,1.325,3.154,2.634,4.738,3.944a3.313,3.313,0,0,0,.4.251V17.071Z" transform="translate(0 0)" fill="#545252"/>
    <path id="Path_269" data-name="Path 269" d="M106.68,175.486c.182-1.291.375-2.549.523-3.814a.882.882,0,0,0-.26-.6c-.733-.766-1.493-1.506-2.243-2.257a2.163,2.163,0,0,1-.569-2.49,2.316,2.316,0,0,1,2.232-1.384,9.977,9.977,0,0,1,9.6,11.247,1.1,1.1,0,0,0,.369,1.135c.4.358.741.784,1.134,1.21.958-.948,1.855-1.817,2.723-2.713a1.388,1.388,0,0,0,.247-.649c.183-.845.348-1.693.518-2.541a2.157,2.157,0,0,1,1.11-1.52c1.944-1.084,3.886-2.175,5.844-3.236a2.151,2.151,0,0,1,2.685.376q.966.914,1.882,1.882a2.16,2.16,0,0,1,.376,2.74c-1.052,1.939-2.129,3.862-3.2,5.789A2.029,2.029,0,0,1,128,179.8a6.784,6.784,0,0,0-5.195,2.831c-.155.2-.35.372-.6.633.724.7,1.409,1.385,2.13,2.03a.9.9,0,0,0,.637.122,9.942,9.942,0,0,1,11.444,9.774,2.055,2.055,0,0,1-1.341,2.035,2.085,2.085,0,0,1-2.4-.437c-.8-.763-1.546-1.577-2.358-2.325a1.187,1.187,0,0,0-.833-.257q-1.58.158-3.146.444a.779.779,0,0,0-.515.491c-.2,1.106-.346,2.222-.465,3.339a.954.954,0,0,0,.266.655c.715.754,1.468,1.47,2.2,2.211a2.186,2.186,0,0,1,.568,2.6,2.288,2.288,0,0,1-2.33,1.313,10,10,0,0,1-9.447-11.451c.108-.677-.062-.817-.733-.6-.411.133-.817.283-1.231.405a2.779,2.779,0,0,0-1.83,1.693,5.859,5.859,0,0,1-1.114,1.722q-3.164,3.262-6.414,6.441a5.792,5.792,0,0,1-8.75-.39,5.488,5.488,0,0,1,.226-7.06c2.337-2.492,4.806-4.863,7.242-7.262a3.3,3.3,0,0,1,1.2-.742,2.9,2.9,0,0,0,2.008-2.182c.082-.334.212-.656.347-1.064a26.681,26.681,0,0,1-2.792-.014,9.885,9.885,0,0,1-8.639-9.59,2.2,2.2,0,0,1,1.318-2.19,2.176,2.176,0,0,1,2.552.548c.744.726,1.452,1.489,2.215,2.191a1.2,1.2,0,0,0,.837.294C104.238,175.874,105.41,175.674,106.68,175.486Zm19.475,27.531.154-.171c-.917-.878-1.826-1.767-2.758-2.63a1.53,1.53,0,0,1-.5-1.459c.254-1.667.508-3.335.73-5.007a1.223,1.223,0,0,1,1.173-1.166c1.649-.23,3.3-.447,4.945-.705a1.623,1.623,0,0,1,1.561.547c.858.9,1.757,1.768,2.731,2.744,0-.3.012-.466,0-.629a7.733,7.733,0,0,0-9.318-6.818,1.744,1.744,0,0,1-1.8-.519q-4.451-4.5-8.953-8.954a1.618,1.618,0,0,1-.489-1.626,7.569,7.569,0,0,0-3.089-8.044,6.167,6.167,0,0,0-4.184-1.284c.856.96,1.761,1.85,2.683,2.721a1.429,1.429,0,0,1,.476,1.338q-.387,2.567-.749,5.135a1.2,1.2,0,0,1-1.148,1.114c-1.607.222-3.22.411-4.814.7a1.787,1.787,0,0,1-1.787-.6c-.822-.876-1.689-1.71-2.637-2.663,0,.365-.019.573,0,.777a7.74,7.74,0,0,0,9.326,6.663,1.741,1.741,0,0,1,1.8.541q4.334,4.388,8.726,8.721a2.07,2.07,0,0,1,.644,2.129A7.682,7.682,0,0,0,126.155,203.017Zm-11.7-11.7-5.027-5.056c-.037.1-.1.235-.144.379a4.888,4.888,0,0,1-3.142,3.375,3.173,3.173,0,0,0-1.046.74c-1.545,1.515-3.068,3.053-4.6,4.584-.673.673-1.374,1.323-2.005,2.035a3.252,3.252,0,0,0-.658,3.5,3.164,3.164,0,0,0,2.7,2.143,3.859,3.859,0,0,0,3.336-1.252c2-2.008,4.02-4,6-6.029a5.5,5.5,0,0,0,.989-1.488,4.735,4.735,0,0,1,2.2-2.373C113.53,191.651,114.023,191.488,114.457,191.314Zm14.563-21.536a35.88,35.88,0,0,1-3.764,2.054,3.747,3.747,0,0,0-2.628,3.669,3.049,3.049,0,0,1-1.134,2.182c-.827.751-1.6,1.556-2.379,2.313.587.575,1.088,1.067,1.653,1.621.314-.34.637-.717.989-1.066,2.7-2.669,1.488-1.993,5.3-2.812a1.033,1.033,0,0,0,.315-.068,1.315,1.315,0,0,0,.479-.372q1.472-2.592,2.894-5.213a.651.651,0,0,0-.067-.593C130.162,170.914,129.6,170.373,129.021,169.778Z" transform="translate(-82.133 -135.008)" fill="#545252"/>
  </g>
</svg>
