<svg xmlns="http://www.w3.org/2000/svg" width="66.484" height="66.507" viewBox="0 0 66.484 66.507">
  <g id="_04-01" data-name="04-01" transform="translate(-3.097 -8.707)">
    <path id="Path_276" data-name="Path 276" d="M31.984,75.214c-1.475-.21-2.965-.342-4.42-.644A29.806,29.806,0,0,1,8.353,61.791a30.369,30.369,0,0,1,1.34-35.975A29.773,29.773,0,0,1,29.418,14.549a29.853,29.853,0,0,1,17.544,2.788,1.212,1.212,0,0,0,.185.08,18.552,18.552,0,0,1,2.2-1.778,3.466,3.466,0,0,1,3.074-.18.71.71,0,0,0,.892-.213c1.5-1.529,2.993-3.07,4.55-4.542a6.622,6.622,0,0,1,6.9-1.642,6.493,6.493,0,0,1,4.671,5.245,6.528,6.528,0,0,1-1.722,6c-1.5,1.587-3.07,3.113-4.627,4.647a.768.768,0,0,0-.23.946,4.1,4.1,0,0,1-1.607,4.747c-.14.1-.282.189-.377.254.61,1.608,1.277,3.154,1.79,4.751A30.416,30.416,0,0,1,35.789,75.107a2.473,2.473,0,0,0-.431.105ZM39.737,30.82a15.28,15.28,0,1,0,7.8,7.877c-.178.168-.349.324-.515.488Q43.759,42.441,40.5,45.7a4.236,4.236,0,0,1-4.519,1.142.856.856,0,0,0-.659.16c-.427.328-.777.756-1.208,1.076a2.713,2.713,0,0,1-3.6-.306,2.75,2.75,0,0,1-.132-3.669,10.757,10.757,0,0,1,.947-.979.653.653,0,0,0,.209-.787,4.09,4.09,0,0,1,1.072-4.407q1.715-1.728,3.44-3.445C37.255,33.277,38.469,32.078,39.737,30.82ZM5.989,43.233c.112.079.13.1.147.1,3.052.008,6.1.011,9.154.029.415,0,.427-.241.456-.542a14.7,14.7,0,0,1,1.383-5.173c.808-1.611,1.783-3.139,2.613-4.578l-6.67-6.881A27.565,27.565,0,0,0,5.989,43.233ZM52.212,65.4c-2.368-2.3-4.678-4.532-7.008-6.792a18,18,0,0,1-10.142,4.153V72.44A27.614,27.614,0,0,0,52.212,65.4Zm1.983-2.128a27.562,27.562,0,0,0,7.145-17.1h-9.7a18.009,18.009,0,0,1-4.268,10.217C49.65,58.686,51.9,60.954,54.195,63.267Zm-41.164.042L19.816,56.3a17.908,17.908,0,0,1-4.132-10.123h-9.7A27.681,27.681,0,0,0,13.031,63.309Zm2.123-39.191,6.874,6.837a17.983,17.983,0,0,1,10.164-4.173V17.1A27.476,27.476,0,0,0,15.154,24.118ZM32.211,62.75A18.009,18.009,0,0,1,22.05,58.537L15.158,65.36A27.522,27.522,0,0,0,32.21,72.443C32.211,69.192,32.211,66,32.211,62.75ZM66.873,15.9a4.219,4.219,0,0,0-2.544-4.1,3.969,3.969,0,0,0-4.549.888c-1.832,1.779-3.614,3.609-5.42,5.416-.894.9-1.336.934-2.363.22a1.4,1.4,0,0,0-1.882.159A1.261,1.261,0,0,0,50.16,20.3q3.948,3.995,7.937,7.947a1.38,1.38,0,0,0,2.04-1.849c-.735-1.045-.688-1.5.222-2.412q2.709-2.707,5.407-5.427A3.2,3.2,0,0,0,66.873,15.9ZM53.949,28.317,50.059,24.4c-.088.084-.2.185-.307.292q-4.839,4.849-9.676,9.7-2.73,2.734-5.457,5.469a1.331,1.331,0,0,0-.241,1.963,1.705,1.705,0,0,1,.414,1.637,5.136,5.136,0,0,1,1.462.354c1.145.689,1.534.69,2.478-.254q7.438-7.436,14.874-14.874C53.742,28.546,53.869,28.4,53.949,28.317ZM35.043,26.67a1,1,0,0,0,.21.077,17.418,17.418,0,0,1,6.2,1.761c.37.185.54.036.766-.192q2.791-2.81,5.591-5.61c.116-.118.215-.254.288-.342a7.323,7.323,0,0,1-.739-1.28,1.575,1.575,0,0,0-.883-.948,26.98,26.98,0,0,0-7.119-2.541c-1.41-.279-2.844-.431-4.314-.648ZM61.3,43.333a2.616,2.616,0,0,0,.024-.313,27.732,27.732,0,0,0-3.289-11.488.938.938,0,0,0-.345-.354c-.539-.306-1.092-.586-1.671-.894.014-.007-.034,0-.062.032C53.965,32.3,51.968,34.275,50,36.276a.791.791,0,0,0-.056.661c.384,1.144.867,2.256,1.2,3.414.275.963.384,1.973.571,2.984Z" fill="#545252"/>
  </g>
</svg>
