<svg id="_01" data-name="01" xmlns="http://www.w3.org/2000/svg" width="62.365" height="66.507" viewBox="0 0 62.365 66.507">
  <path id="Path_262" data-name="Path 262" d="M53.4,66.507H8.973a1.706,1.706,0,0,1-.66-1.577c.027-2.012.01-4.025.01-6.039v-.7H1.594c-1.3,0-1.585-.288-1.585-1.613q0-27.5-.009-55A1.727,1.727,0,0,1,.659,0H45.087a1.627,1.627,0,0,1,.656,1.576c-.035.505-.006,1.016-.006,1.542h14.97c1.4,0,1.657.262,1.657,1.669V43.475q0,8.211,0,16.423c0,1.057-.348,1.408-1.392,1.412-.974,0-1.947,0-2.921,0h-4c0,1.251-.025,2.437.01,3.62A1.685,1.685,0,0,1,53.4,66.507ZM2.122,41.5H43.6V2.132H2.122C2.122,15.265,2.122,28.359,2.122,41.5ZM43.64,43.7H2.129V56.062H43.64ZM10.428,64.371h41.5V52h-6.18v4.558c0,1.365-.274,1.644-1.62,1.644h-33.7C10.428,60.3,10.428,62.311,10.428,64.371ZM60.236,5.266H45.808V8.294h6.6c1.4,0,1.66.265,1.66,1.667V44.63h6.165Q60.237,24.925,60.236,5.266Zm-8.319,24.87q0-9.481.012-18.962c0-.56-.135-.755-.721-.74-1.58.039-3.16.029-4.74,0-.483-.008-.688.091-.687.64q.021,19.06,0,38.119c0,.549.208.646.688.639,1.559-.023,3.117-.04,4.675.006.644.019.788-.2.787-.808C51.91,42.733,51.918,36.434,51.918,30.136Zm8.3,29.06V46.822H54.105V59.2Z" fill="#545252"/>
  <path id="Path_263" data-name="Path 263" d="M51.082,384.33v2H32.45v-2Z" transform="translate(-28.235 -334.407)" fill="#545252"/>
  <path id="Path_264" data-name="Path 264" d="M32.27,354.244v-2h6.161v2Z" transform="translate(-28.078 -306.486)" fill="#545252"/>
  <path id="Path_265" data-name="Path 265" d="M102.587,354.312H96.43V352.3h6.157Z" transform="translate(-83.904 -306.538)" fill="#545252"/>
  <path id="Path_266" data-name="Path 266" d="M160.27,354.318V352.31h2.02v2.008Z" transform="translate(-139.452 -306.546)" fill="#545252"/>
</svg>
